<?xml version="1.0" encoding="iso-8859-1"?>
<!-- Uploaded to: SVG Repo, www.svgrepo.com, Generator: SVG Repo Mixer Tools -->
<svg version="1.1" id="Layer_1" xmlns="http://www.w3.org/2000/svg" xmlns:xlink="http://www.w3.org/1999/xlink" 
	 viewBox="0 0 512 512" xml:space="preserve">
<circle style="fill:#273B7A;" cx="256" cy="256" r="256"/>
<g>
	<polygon style="fill:#121149;" points="275.149,64.302 306.619,95.77 272.665,95.77 	"/>
	<polygon style="fill:#121149;" points="310.925,90.4 331.712,111.187 303.695,111.187 294.214,90.4 	"/>
	<path style="fill:#121149;" d="M146.158,408.423l103.496,103.496c2.11,0.052,4.224,0.081,6.346,0.081
		c141.384,0,256-114.616,256-256c0-2.119-0.029-4.229-0.081-6.335L365.946,103.691L146.158,408.423z"/>
</g>
<path style="fill:#FF7F4F;" d="M356.202,412.444H155.798c-7.497,0-13.576-6.078-13.576-13.576V113.131
	c0-7.497,6.078-13.576,13.576-13.576h200.404c7.497,0,13.576,6.078,13.576,13.576v285.737
	C369.778,406.366,363.699,412.444,356.202,412.444z"/>
<path style="fill:#DB532A;" d="M356.202,99.556H255.426v312.889h100.776c7.497,0,13.576-6.078,13.576-13.576V113.131
	C369.778,105.634,363.699,99.556,356.202,99.556z"/>
<path style="fill:#FFFFFF;" d="M344.243,395.852H167.757c-3.153,0-5.71-2.557-5.71-5.71V121.858c0-3.153,2.557-5.71,5.71-5.71
	h176.485c3.153,0,5.71,2.557,5.71,5.71v268.283C349.953,393.295,347.396,395.852,344.243,395.852z"/>
<path style="fill:#DBDBDB;" d="M344.243,116.148h-88.817v279.704h88.817c3.153,0,5.71-2.557,5.71-5.71V121.858
	C349.953,118.705,347.396,116.148,344.243,116.148z"/>
<path style="fill:#FEE187;" d="M301.396,85.333h-16.951c0-15.71-12.734-28.444-28.444-28.444s-28.444,12.734-28.444,28.444h-16.951
	c-6.347,0-11.493,5.146-11.493,11.493v33.902c0,6.347,5.146,11.493,11.493,11.493h90.791c6.347,0,11.493-5.146,11.493-11.493V96.827
	C312.889,90.479,307.743,85.333,301.396,85.333z M256,92.444c-3.927,0-7.111-3.184-7.111-7.111c0-3.927,3.184-7.111,7.111-7.111
	s7.111,3.184,7.111,7.111C263.111,89.26,259.927,92.444,256,92.444z"/>
<path style="fill:#FFC61B;" d="M301.396,85.333h-16.951c0-15.71-12.734-28.444-28.444-28.444c-0.193,0-0.381,0.026-0.574,0.029
	v21.363c0.193-0.016,0.378-0.059,0.574-0.059c3.927,0,7.111,3.184,7.111,7.111c0,3.927-3.184,7.111-7.111,7.111
	c-0.197,0-0.381-0.041-0.574-0.059v49.836h45.97c6.347,0,11.493-5.146,11.493-11.493V96.827
	C312.889,90.479,307.743,85.333,301.396,85.333z"/>
<g>
	<rect x="199.111" y="168.943" style="fill:#263A7A;" width="113.778" height="3.448"/>
	<rect x="199.111" y="197.387" style="fill:#263A7A;" width="113.778" height="3.448"/>
	<rect x="199.111" y="225.832" style="fill:#263A7A;" width="113.778" height="3.448"/>
</g>
</svg>